#!OML:ASF F:\VICON\USERDATA\INSTALL\rory3\rory3.ASF
:FULLY-SPECIFIED
:DEGREES
1551
root -4.87251 19.7199 7.56917 2.96138 -17.1973 4.08525
lowerback 6.32201 2.74284 2.91232
upperback -0.463801 3.86035 -0.406841
thorax -3.80091 1.85335 -2.41164
lowerneck -8.8908 -8.2608 -4.8434
upperneck -10.9638 -9.87588 15.2067
head -0.711504 -4.97982 5.11024
rclavicle 3.4191e-014 -5.56597e-015
rhumerus 59.4717 -19.219 -26.8305
rradius 56.4182
rwrist 18.0981
rhand -55.9454 16.5363
rfingers 7.12502
rthumb -28.284 -11.3483
lclavicle 3.4191e-014 -5.56597e-015
lhumerus -41.4317 -2.21366 59.1173
lradius 34.5216
lwrist -6.04199
lhand -32.682 33.495
lfingers 7.12502
lthumb -5.90718 63.3927
rfemur -5.57476 15.3838 16.2745
rtibia 20.415
rfoot -4.76486 -14.2396
rtoes -11.8282
lfemur -3.69915 -11.0043 -7.75519
ltibia 18.2627
lfoot 20.1731 17.9492
ltoes -7.30795
1552
root -4.87863 19.7176 7.57036 2.9607 -17.2928 4.12137
lowerback 6.29462 2.72503 2.82467
upperback -0.469624 3.82939 -0.403602
thorax -3.79926 1.83979 -2.35543
lowerneck -8.89841 -8.24762 -4.79698
upperneck -10.7338 -9.88213 15.3024
head -0.63795 -4.97738 5.12341
rclavicle 1.09332e-014 7.95139e-015
rhumerus 58.899 -18.8925 -25.6875
rradius 57.1376
rwrist 18.9136
rhand -56.6128 16.9241
rfingers 7.12502
rthumb -28.9217 -10.8531
lclavicle 1.09332e-014 7.95139e-015
lhumerus -41.417 -2.28179 59.1578
lradius 34.6162
lwrist -6.04923
lhand -32.4988 33.2113
lfingers 7.12502
lthumb -5.73032 63.1139
rfemur -5.6294 15.4349 16.2799
rtibia 20.4751
rfoot -4.83236 -14.3911
rtoes -11.6402
lfemur -3.6835 -10.8745 -7.76742
ltibia 18.2546
lfoot 20.245 17.8069
ltoes -7.45699
1553
root -4.88429 19.7162 7.57032 3.00329 -17.283 4.03632
lowerback 6.28448 2.68326 2.84518
upperback -0.476224 3.77743 -0.34171
thorax -3.80635 1.81388 -2.29816
lowerneck -9.01351 -8.23288 -4.79005
upperneck -10.4939 -9.8835 15.3797
head -0.544108 -4.96607 5.13323
rclavicle -4.36332e-014 5.56597e-015
rhumerus 58.5286 -18.6008 -24.8803
rradius 57.625
rwrist 19.6439
rhand -57.3058 16.0622
rfingers 7.12502
rthumb -29.5834 -11.5997
lclavicle -4.36332e-014 5.56597e-015
lhumerus -41.3815 -2.31079 59.2491
lradius 34.703
lwrist -5.97854
lhand -32.2085 33.2112
lfingers 7.12502
lthumb -5.45004 63.1211
rfemur -5.65199 15.4671 16.4277
rtibia 20.4959
rfoot -4.89951 -14.5963
rtoes -11.4694
lfemur -3.72765 -10.8545 -7.63801
ltibia 18.2626
lfoot 20.2928 17.7414
ltoes -7.32449
1554
root -4.89004 19.7172 7.56928 3.0721 -17.1558 3.98527
lowerback 6.24254 2.61673 2.8549
upperback -0.484453 3.68936 -0.315816
thorax -3.79751 1.77031 -2.26715
lowerneck -9.16202 -8.22647 -4.73965
upperneck -10.2871 -9.89537 15.4674
head -0.45533 -4.96118 5.13861
rclavicle 3.37934e-015 -6.36111e-015
rhumerus 58.1922 -18.4123 -24.3086
rradius 57.97
rwrist 20.0533
rhand -57.6 16.4983
rfingers 7.12502
rthumb -29.8642 -11.1134
lclavicle 3.37934e-015 -6.36111e-015
lhumerus -41.3191 -2.36181 59.3363
lradius 34.77
lwrist -5.61298
lhand -32.5881 33.1415
lfingers 7.12502
lthumb -5.81653 63.0417
rfemur -5.66202 15.4088 16.5364
rtibia 20.4503
rfoot -5.03903 -14.7934
rtoes -11.171
lfemur -3.85314 -10.9096 -7.52655
ltibia 18.3044
lfoot 20.3113 17.6613
ltoes -7.0785
1555
root -4.89666 19.7192 7.57115 3.08681 -17.0576 4.00077
lowerback 6.21815 2.54691 2.78295
upperback -0.484416 3.5908 -0.299894
thorax -3.79475 1.72305 -2.20077
lowerneck -9.33497 -8.2287 -4.74142
upperneck -10.0803 -9.91358 15.6149
head -0.355052 -4.957 5.16897
rclavicle -4.96962e-016 -3.97569e-015
rhumerus 57.6213 -18.193 -23.5224
rradius 58.4048
rwrist 19.6851
rhand -57.7963 17.4734
rfingers 7.12502
rthumb -30.0515 -10.1045
lclavicle -4.96962e-016 -3.97569e-015
lhumerus -41.2849 -2.40956 59.4157
lradius 34.826
lwrist -5.30984
lhand -32.9403 33.0629
lfingers 7.12502
lthumb -6.15654 62.9535
rfemur -5.60011 15.3256 16.5734
rtibia 20.3738
rfoot -5.14264 -14.93
rtoes -10.977
lfemur -3.91154 -10.9567 -7.5114
ltibia 18.3357
lfoot 20.3937 17.4951
ltoes -7.15558
1556
root -4.90314 19.7184 7.57328 3.0832 -16.9818 3.88218
lowerback 6.25007 2.48211 2.85402
upperback -0.480917 3.5124 -0.253863
thorax -3.81218 1.68271 -2.1877
lowerneck -9.45886 -8.27205 -4.80534
upperneck -9.86811 -9.98463 15.7642
head -0.252245 -4.97837 5.20841
rclavicle -4.42296e-014 7.95139e-016
rhumerus 57.2093 -17.9743 -23.0147
rradius 58.5622
rwrist 19.1308
rhand -58.345 17.4843
rfingers 7.12502
rthumb -30.5749 -9.99732
lclavicle -4.42296e-014 7.95139e-016
lhumerus -41.2542 -2.4848 59.5242
lradius 34.9293
lwrist -5.12455
lhand -32.8832 33.2196
lfingers 7.12502
lthumb -6.10149 63.1117
rfemur -5.47756 15.2405 16.7678
rtibia 20.294
rfoot -5.07928 -14.9761
rtoes -11.0099
lfemur -3.8972 -10.9794 -7.36516
ltibia 18.3442
lfoot 20.4317 17.3624
ltoes -7.44854
1557
root -4.9098 19.7197 7.57444 2.97682 -16.8571 3.88699
lowerback 6.33598 2.41484 2.79173
upperback -0.454285 3.42069 -0.240526
thorax -3.84239 1.63817 -2.13482
lowerneck -9.64358 -8.33044 -4.8506
upperneck -9.54647 -10.0908 15.8502
head -0.109637 -5.01018 5.2182
rclavicle -5.43676e-014 1.59028e-015
rhumerus 57.0338 -17.8657 -22.9622
rradius 58.3615
rwrist 18.8226
rhand -58.9119 16.8913
rfingers 7.12502
rthumb -31.1154 -10.4881
lclavicle -5.43676e-014 1.59028e-015
lhumerus -41.2585 -2.5941 59.6025
lradius 35.1451
lwrist -5.18288
lhand -32.6577 33.1571
lfingers 7.12502
lthumb -5.8837 63.0554
rfemur -5.28052 15.1564 16.8491
rtibia 20.2186
rfoot -5.05127 -15.0331
rtoes -10.9463
lfemur -3.82774 -11.0405 -7.35656
ltibia 18.3303
lfoot 20.5624 17.2253
ltoes -7.69829
1558
root -4.91739 19.7215 7.57299 2.89403 -16.6917 3.95975
lowerback 6.37629 2.36453 2.66686
upperback -0.43679 3.34363 -0.276984
thorax -3.85592 1.60205 -2.09747
lowerneck -9.69363 -8.4172 -4.90401
upperneck -9.37141 -10.2184 16.041
head -0.0210353 -5.06382 5.26861
rclavicle -2.98177e-016 -2.38542e-014
rhumerus 56.4464 -17.8938 -22.5946
rradius 58.3083
rwrist 18.1915
rhand -59.0077 16.0805
rfingers 7.12502
rthumb -31.2066 -11.2814
lclavicle -2.98177e-016 -2.38542e-014
lhumerus -41.1791 -2.7204 59.6161
lradius 35.2791
lwrist -5.36763
lhand -32.5559 33.0257
lfingers 7.12502
lthumb -5.78541 62.9267
rfemur -5.15023 15.0119 16.8455
rtibia 20.1545
rfoot -5.00066 -15.1144
rtoes -10.9856
lfemur -3.78893 -11.126 -7.40878
ltibia 18.2824
lfoot 20.6192 17.2237
ltoes -7.55492
1559
root -4.92811 19.7243 7.57143 2.86714 -16.5073 4.03655
lowerback 6.33111 2.33643 2.47149
upperback -0.425162 3.28921 -0.295452
thorax -3.83102 1.57948 -2.00002
lowerneck -9.62411 -8.49693 -5.01042
upperneck -9.36272 -10.3147 16.2663
head 0.00252376 -5.11185 5.3491
rclavicle -6.91771e-014 -2.14687e-014
rhumerus 55.9958 -18.013 -22.5222
rradius 58.0365
rwrist 17.7967
rhand -58.8274 15.878
rfingers 7.12502
rthumb -31.0349 -11.5168
lclavicle -6.91771e-014 -2.14687e-014
lhumerus -41.0294 -2.82373 59.6356
lradius 35.3159
lwrist -5.58941
lhand -32.5569 33.073
lfingers 7.12502
lthumb -5.78642 62.974
rfemur -5.08084 14.7968 16.829
rtibia 20.1005
rfoot -4.85417 -15.1672
rtoes -11.2047
lfemur -3.79308 -11.134 -7.44259
ltibia 18.1849
lfoot 20.808 17.001
ltoes -8.05688
1560
root -4.93684 19.7284 7.57479 2.84582 -16.2952 4.14282
lowerback 6.25065 2.28426 2.27697
upperback -0.446363 3.20236 -0.321916
thorax -3.82105 1.54017 -1.9077
lowerneck -9.4295 -8.50795 -4.97839
upperneck -9.4619 -10.3233 16.3054
head -0.0554678 -5.12929 5.36564
rclavicle 3.57812e-015 -1.43125e-014
rhumerus 55.9347 -18.1572 -23.023
rradius 57.305
rwrist 17.8983
rhand -58.864 15.704
rfingers 7.12502
rthumb -31.0697 -11.6842
lclavicle 3.57812e-015 -1.43125e-014
lhumerus -40.9683 -2.83199 59.571
lradius 35.3105
lwrist -6.02029
lhand -32.6448 32.9828
lfingers 7.12502
lthumb -5.87127 62.8814
rfemur -5.00161 14.4533 16.7552
rtibia 20.0294
rfoot -4.73687 -15.0889
rtoes -11.7791
lfemur -3.82049 -11.2876 -7.52224
ltibia 18.1094
lfoot 20.8531 16.9358
ltoes -8.4098
1561
root -4.94384 19.7311 7.58086 2.80186 -16.0866 4.12191
lowerback 6.20272 2.23386 2.22394
upperback -0.425691 3.13071 -0.297843
thorax -3.78017 1.50676 -1.84399
lowerneck -9.35691 -8.52836 -5.00389
upperneck -9.51537 -10.3429 16.3449
head -0.0763367 -5.14354 5.38472
rclavicle 7.55382e-015 8.74653e-015
rhumerus 55.7391 -18.4019 -23.3035
rradius 56.5554
rwrist 17.9926
rhand -58.7109 15.0525
rfingers 7.12502
rthumb -30.9238 -12.3635
lclavicle 7.55382e-015 8.74653e-015
lhumerus -40.9308 -2.87231 59.6512
lradius 35.4448
lwrist -6.16153
lhand -32.4889 33.1291
lfingers 7.12502
lthumb -5.72079 63.0319
rfemur -4.83513 14.207 16.8338
rtibia 19.9291
rfoot -4.66906 -15.0564
rtoes -12.1819
lfemur -3.79781 -11.4195 -7.47597
ltibia 18.0717
lfoot 20.9013 16.8788
ltoes -8.14331
1562
root -4.95277 19.7313 7.58256 2.82748 -15.8974 3.93105
lowerback 6.15676 2.19778 2.30416
upperback -0.412684 3.08863 -0.261614
thorax -3.7406 1.48536 -1.84515
lowerneck -9.36076 -8.57862 -5.03645
upperneck -9.38383 -10.4206 16.4775
head -0.0176637 -5.17612 5.42044
rclavicle -5.71506e-015 7.95139e-016
rhumerus 55.2919 -18.6989 -23.4775
rradius 55.9139
rwrist 18.1224
rhand -58.6162 14.4017
rfingers 7.12502
rthumb -30.8335 -13.0314
lclavicle -5.71506e-015 7.95139e-016
lhumerus -40.8367 -3.13438 59.8046
lradius 35.6329
lwrist -5.81724
lhand -32.3083 33.3468
lfingers 7.12502
lthumb -5.54641 63.2542
rfemur -4.68813 14.1161 17.1039
rtibia 19.8092
rfoot -4.6695 -15.1713
rtoes -12.0329
lfemur -3.80713 -11.47 -7.21956
ltibia 18.0469
lfoot 20.938 16.8841
ltoes -7.77848
